<svg width="46" height="43" viewBox="0 0 46 43" fill="none" xmlns="http://www.w3.org/2000/svg">
<path d="M30.562 19.4375C30.0511 18.9157 29.4292 18.5158 28.7426 18.2673C28.0559 18.0188 27.3221 17.9282 26.5956 18.0022C25.8692 18.0761 25.1687 18.3128 24.5462 18.6946C23.9237 19.0764 23.3952 19.5934 23 20.2075C22.6049 19.5933 22.0764 19.0761 21.4539 18.6942C20.8315 18.3123 20.1309 18.0755 19.4044 18.0016C18.6779 17.9276 17.944 18.0183 17.2573 18.2668C16.5706 18.5154 15.9488 18.9155 15.438 19.4375C14.5163 20.3801 14.0002 21.6461 14.0002 22.9645C14.0002 24.2828 14.5163 25.5488 15.438 26.4915L23 34.1765L30.564 26.4925C31.485 25.5491 32.0004 24.2829 32 22.9645C31.9997 21.6462 31.4835 20.3803 30.562 19.4375V19.4375Z" stroke="white" stroke-width="2" stroke-miterlimit="10" stroke-linecap="round" stroke-linejoin="round"/>
<path d="M41 41.9766H5C3.93913 41.9766 2.92172 41.5551 2.17157 40.805C1.42143 40.0548 1 39.0374 1 37.9766V1.97656H17L22 9.97656H45V37.9766C45 39.0374 44.5786 40.0548 43.8284 40.805C43.0783 41.5551 42.0609 41.9766 41 41.9766Z" stroke="white" stroke-width="2" stroke-miterlimit="10" stroke-linecap="round" stroke-linejoin="round"/>
</svg>
