<svg width="20" height="21" viewBox="0 0 20 21" fill="none" xmlns="http://www.w3.org/2000/svg">
<path d="M18.4999 14.0023H5.99988M5.99988 14.0023V1.50232M5.99988 14.0023L1.49988 18.5023M1.49988 6.00232H13.9999M13.9999 6.00232V18.5023M13.9999 6.00232L18.4999 1.50232M18.9999 13.3396V1.80232C18.9999 1.52229 18.9999 1.38228 18.9454 1.27532C18.8974 1.18124 18.821 1.10475 18.7269 1.05682C18.6199 1.00232 18.4799 1.00232 18.1999 1.00232H6.66262C6.41803 1.00232 6.29573 1.00232 6.18065 1.02995C6.07861 1.05445 5.98107 1.09485 5.89159 1.14968C5.79068 1.21152 5.7042 1.298 5.53125 1.47095L1.46851 5.53369C1.29556 5.70664 1.20908 5.79312 1.14724 5.89403C1.09241 5.98351 1.052 6.08105 1.02751 6.18309C0.999878 6.29817 0.999878 6.42047 0.999878 6.66506V18.2023C0.999878 18.4823 0.999878 18.6224 1.05437 18.7293C1.10231 18.8234 1.1788 18.8999 1.27288 18.9478C1.37984 19.0023 1.51985 19.0023 1.79988 19.0023H13.3371C13.5817 19.0023 13.704 19.0023 13.8191 18.9747C13.9211 18.9502 14.0187 18.9098 14.1082 18.855C14.2091 18.7931 14.2956 18.7066 14.4685 18.5337L18.5312 14.4709C18.7042 14.298 18.7907 14.2115 18.8525 14.1106C18.9073 14.0211 18.9478 13.9236 18.9722 13.8216C18.9999 13.7065 18.9999 13.5842 18.9999 13.3396Z" stroke="#C23893" stroke-width="2" stroke-linecap="round" stroke-linejoin="round"/>
</svg>
