<svg width="20" height="22" viewBox="0 0 20 22" fill="none" xmlns="http://www.w3.org/2000/svg">
<path d="M9.99988 1.50228V11.0023M9.99988 11.0023L18.4999 6.27999M9.99988 11.0023L1.49988 6.27999M9.99988 11.0023V20.5023M18.4999 15.7245L10.7769 11.434C10.4933 11.2764 10.3515 11.1976 10.2013 11.1667C10.0684 11.1394 9.93134 11.1394 9.79843 11.1667C9.64826 11.1976 9.50646 11.2764 9.22285 11.434L1.49988 15.7245M18.9999 15.0608V6.94373C18.9999 6.60108 18.9999 6.42976 18.9494 6.27696C18.9047 6.14179 18.8317 6.01771 18.7352 5.91302C18.6262 5.79468 18.4764 5.71148 18.1769 5.54507L10.7769 1.43396C10.4933 1.27641 10.3515 1.19763 10.2013 1.16674C10.0684 1.13941 9.93134 1.13941 9.79843 1.16674C9.64826 1.19763 9.50645 1.27641 9.22285 1.43396L1.82285 5.54508C1.52333 5.71148 1.37356 5.79468 1.26451 5.91302C1.16804 6.01771 1.09503 6.14179 1.05036 6.27697C0.999878 6.42976 0.999878 6.60109 0.999878 6.94373V15.0608C0.999878 15.4035 0.999878 15.5748 1.05036 15.7276C1.09503 15.8628 1.16804 15.9869 1.26451 16.0915C1.37356 16.2099 1.52333 16.2931 1.82285 16.4595L9.22285 20.5706C9.50646 20.7282 9.64826 20.8069 9.79843 20.8378C9.93134 20.8652 10.0684 20.8652 10.2013 20.8378C10.3515 20.8069 10.4933 20.7282 10.7769 20.5706L18.1769 16.4595C18.4764 16.2931 18.6262 16.2099 18.7352 16.0915C18.8317 15.9869 18.9047 15.8628 18.9494 15.7276C18.9999 15.5748 18.9999 15.4035 18.9999 15.0608Z" stroke="#C23893" stroke-width="2" stroke-linecap="round" stroke-linejoin="round"/>
</svg>
