<svg width="204" height="140" viewBox="0 0 204 140" fill="none" xmlns="http://www.w3.org/2000/svg">
<g filter="url(#filter0_dd_36_5473)">
<rect x="12" width="180" height="110" rx="8" fill="white"/>
<g clip-path="url(#clip0_36_5473)">
<path d="M112 22C112 27.5228 107.523 32 102 32C96.4772 32 92 27.5228 92 22C92 22.0023 102 12.0011 102 12C107.523 12 112 16.4772 112 22Z" fill="#0052B4"/>
<path d="M101.973 22.0004H102C102 21.9914 102 21.9827 102 21.9736C101.991 21.9826 101.982 21.9915 101.973 22.0004Z" fill="#F0F0F0"/>
<path d="M102 17.2184C102 15.4588 102 14.3058 102 12.001H101.998C96.476 12.0019 91.9998 16.4786 91.9998 22.0009H97.2171V19.063L100.155 22.0009H101.973C101.982 21.992 101.991 21.9831 102 21.9742C102 21.3005 102 20.6993 102 20.1564L99.0618 17.2184H102Z" fill="#F0F0F0"/>
<path d="M97.0593 13.3047C95.4953 14.1953 94.195 15.4955 93.3044 17.0595V22.0004H95.9132V15.9134V15.9134H102C102 15.0906 102 14.3068 102 13.3047H97.0593V13.3047Z" fill="#D80027"/>
<path d="M102 20.7706L98.4475 17.2178H97.2178C97.2178 17.2178 97.2178 17.2178 97.2178 17.2178L102 22.0003H102C102 22.0003 102 21.1525 102 20.7706Z" fill="#D80027"/>
<path d="M98.0313 23.7383L98.5801 24.8859L99.8195 24.5994L99.2645 25.744L100.261 26.5344L99.0202 26.8141L99.0237 28.0861L98.0313 27.2903L97.039 28.0861L97.0425 26.8141L95.8015 26.5344L96.7982 25.744L96.2431 24.5994L97.4825 24.8859L98.0313 23.7383Z" fill="#F0F0F0"/>
<path d="M106.973 25.9121L107.247 26.4859L107.867 26.3427L107.589 26.915L108.087 27.3102L107.467 27.45L107.469 28.086L106.973 27.6881L106.476 28.086L106.478 27.45L105.858 27.3102L106.356 26.915L106.078 26.3427L106.698 26.4859L106.973 25.9121Z" fill="#F0F0F0"/>
<path d="M104.42 19.8262L104.694 20.4L105.314 20.2567L105.036 20.829L105.534 21.2242L104.914 21.3641L104.916 22.0001L104.42 21.6021L103.923 22.0001L103.925 21.3641L103.305 21.2242L103.803 20.829L103.526 20.2567L104.145 20.4L104.42 19.8262Z" fill="#F0F0F0"/>
<path d="M106.973 16.3477L107.247 16.9215L107.867 16.7782L107.589 17.3505L108.087 17.7457L107.467 17.8856L107.469 18.5216L106.973 18.1237L106.476 18.5216L106.478 17.8856L105.858 17.7457L106.356 17.3505L106.078 16.7782L106.698 16.9215L106.973 16.3477Z" fill="#F0F0F0"/>
<path d="M109.202 18.9561L109.476 19.5299L110.096 19.3866L109.818 19.9589L110.317 20.3541L109.696 20.494L109.698 21.13L109.202 20.7321L108.706 21.13L108.707 20.494L108.087 20.3541L108.585 19.9589L108.308 19.3866L108.927 19.5299L109.202 18.9561Z" fill="#F0F0F0"/>
<path d="M107.608 22L107.824 22.6643H108.522L107.957 23.0749L108.173 23.7391L107.608 23.3286L107.043 23.7391L107.258 23.0749L106.693 22.6643H107.392L107.608 22Z" fill="#F0F0F0"/>
</g>
<path d="M56.4764 44.2727H58.0744L60.8528 51.0568H60.9551L63.7335 44.2727H65.3315V53H64.0787V46.6847H63.9977L61.4238 52.9872H60.3841L57.8102 46.6804H57.7292V53H56.4764V44.2727ZM69.9647 53.1321C69.3198 53.1321 68.7644 52.9943 68.2985 52.7188C67.8354 52.4403 67.4775 52.0497 67.2246 51.5469C66.9746 51.0412 66.8496 50.4489 66.8496 49.7699C66.8496 49.0994 66.9746 48.5085 67.2246 47.9972C67.4775 47.4858 67.8297 47.0866 68.2814 46.7997C68.736 46.5128 69.2672 46.3693 69.8752 46.3693C70.2445 46.3693 70.6025 46.4304 70.949 46.5526C71.2956 46.6747 71.6067 46.8665 71.8823 47.1278C72.1578 47.3892 72.3752 47.7287 72.5343 48.1463C72.6934 48.5611 72.7729 49.0653 72.7729 49.6591V50.1108H67.5698V49.1562H71.5243C71.5243 48.821 71.4561 48.5241 71.3198 48.2656C71.1834 48.0043 70.9917 47.7983 70.7445 47.6477C70.5002 47.4972 70.2132 47.4219 69.8837 47.4219C69.5257 47.4219 69.2132 47.5099 68.9462 47.6861C68.682 47.8594 68.4775 48.0866 68.3326 48.3679C68.1905 48.6463 68.1195 48.9489 68.1195 49.2756V50.0213C68.1195 50.4588 68.1962 50.831 68.3496 51.1378C68.5059 51.4446 68.7232 51.679 69.0016 51.8409C69.28 52 69.6053 52.0795 69.9775 52.0795C70.2189 52.0795 70.4391 52.0455 70.638 51.9773C70.8368 51.9062 71.0087 51.8011 71.1536 51.6619C71.2985 51.5227 71.4093 51.3509 71.486 51.1463L72.6919 51.3636C72.5953 51.7187 72.4221 52.0298 72.1721 52.2969C71.9249 52.5611 71.6138 52.767 71.2388 52.9148C70.8667 53.0597 70.4419 53.1321 69.9647 53.1321ZM75.4608 44.2727V53H74.1866V44.2727H75.4608ZM77.2772 53V44.2727H78.5513V47.5156H78.628C78.7019 47.3793 78.8084 47.2216 78.9476 47.0426C79.0868 46.8636 79.28 46.7074 79.5272 46.5739C79.7743 46.4375 80.101 46.3693 80.5073 46.3693C81.0357 46.3693 81.5073 46.5028 81.9221 46.7699C82.3368 47.0369 82.6621 47.4219 82.8979 47.9247C83.1365 48.4276 83.2559 49.0327 83.2559 49.7401C83.2559 50.4474 83.138 51.054 82.9022 51.5597C82.6664 52.0625 82.3425 52.4503 81.9306 52.723C81.5186 52.9929 81.0485 53.1278 80.5201 53.1278C80.1223 53.1278 79.7971 53.0611 79.5442 52.9276C79.2942 52.794 79.0982 52.6378 78.9561 52.4588C78.8141 52.2798 78.7047 52.1207 78.628 51.9815H78.5215V53H77.2772ZM78.5257 49.7273C78.5257 50.1875 78.5925 50.5909 78.726 50.9375C78.8596 51.2841 79.0527 51.5554 79.3056 51.7514C79.5584 51.9446 79.8681 52.0412 80.2346 52.0412C80.6152 52.0412 80.9334 51.9403 81.1891 51.7386C81.4448 51.5341 81.638 51.2571 81.7686 50.9077C81.9022 50.5582 81.9689 50.1648 81.9689 49.7273C81.9689 49.2955 81.9036 48.9077 81.7729 48.5639C81.6451 48.2202 81.4519 47.9489 81.1934 47.75C80.9377 47.5511 80.6181 47.4517 80.2346 47.4517C79.8652 47.4517 79.5527 47.5469 79.2971 47.7372C79.0442 47.9276 78.8525 48.1932 78.7218 48.5341C78.5911 48.875 78.5257 49.2727 78.5257 49.7273ZM87.4437 53.1321C86.8301 53.1321 86.2946 52.9915 85.8372 52.7102C85.3798 52.429 85.0247 52.0355 84.7718 51.5298C84.519 51.0241 84.3926 50.4332 84.3926 49.7571C84.3926 49.0781 84.519 48.4844 84.7718 47.9759C85.0247 47.4673 85.3798 47.0724 85.8372 46.7912C86.2946 46.5099 86.8301 46.3693 87.4437 46.3693C88.0574 46.3693 88.5929 46.5099 89.0502 46.7912C89.5076 47.0724 89.8627 47.4673 90.1156 47.9759C90.3684 48.4844 90.4949 49.0781 90.4949 49.7571C90.4949 50.4332 90.3684 51.0241 90.1156 51.5298C89.8627 52.0355 89.5076 52.429 89.0502 52.7102C88.5929 52.9915 88.0574 53.1321 87.4437 53.1321ZM87.448 52.0625C87.8457 52.0625 88.1752 51.9574 88.4366 51.7472C88.698 51.5369 88.8912 51.2571 89.0162 50.9077C89.144 50.5582 89.2079 50.1733 89.2079 49.7528C89.2079 49.3352 89.144 48.9517 89.0162 48.6023C88.8912 48.25 88.698 47.9673 88.4366 47.7543C88.1752 47.5412 87.8457 47.4347 87.448 47.4347C87.0474 47.4347 86.715 47.5412 86.4508 47.7543C86.1895 47.9673 85.9949 48.25 85.867 48.6023C85.742 48.9517 85.6795 49.3352 85.6795 49.7528C85.6795 50.1733 85.742 50.5582 85.867 50.9077C85.9949 51.2571 86.1895 51.5369 86.4508 51.7472C86.715 51.9574 87.0474 52.0625 87.448 52.0625ZM96.0634 50.2855V46.4545H97.3418V53H96.089V51.8665H96.0208C95.8702 52.2159 95.6287 52.5071 95.2963 52.7401C94.9668 52.9702 94.5563 53.0852 94.0648 53.0852C93.6444 53.0852 93.2722 52.9929 92.9483 52.8082C92.6273 52.6207 92.3745 52.3438 92.1898 51.9773C92.008 51.6108 91.9171 51.1577 91.9171 50.6179V46.4545H93.1912V50.4645C93.1912 50.9105 93.3148 51.2656 93.562 51.5298C93.8091 51.794 94.1301 51.9261 94.525 51.9261C94.7637 51.9261 95.0009 51.8665 95.2367 51.7472C95.4753 51.6278 95.6728 51.4474 95.829 51.206C95.9881 50.9645 96.0662 50.6577 96.0634 50.2855ZM99.0538 53V46.4545H100.285V47.4943H100.354C100.473 47.142 100.683 46.8651 100.984 46.6634C101.288 46.4588 101.632 46.3565 102.015 46.3565C102.095 46.3565 102.189 46.3594 102.297 46.3651C102.407 46.3707 102.494 46.3778 102.557 46.3864V47.6051C102.506 47.5909 102.415 47.5753 102.284 47.5582C102.153 47.5384 102.023 47.5284 101.892 47.5284C101.591 47.5284 101.322 47.5923 101.086 47.7202C100.854 47.8452 100.669 48.0199 100.532 48.2443C100.396 48.4659 100.328 48.7187 100.328 49.0028V53H99.0538ZM104.933 49.1136V53H103.659V46.4545H104.882V47.5199H104.963C105.114 47.1733 105.35 46.8949 105.671 46.6847C105.994 46.4744 106.402 46.3693 106.894 46.3693C107.34 46.3693 107.73 46.4631 108.066 46.6506C108.401 46.8352 108.661 47.1108 108.845 47.4773C109.03 47.8437 109.122 48.2969 109.122 48.8366V53H107.848V48.9901C107.848 48.5156 107.725 48.1449 107.477 47.8778C107.23 47.608 106.891 47.473 106.459 47.473C106.164 47.473 105.901 47.5369 105.671 47.6648C105.443 47.7926 105.263 47.9801 105.129 48.2273C104.999 48.4716 104.933 48.767 104.933 49.1136ZM113.652 53.1321C113.007 53.1321 112.452 52.9943 111.986 52.7188C111.523 52.4403 111.165 52.0497 110.912 51.5469C110.662 51.0412 110.537 50.4489 110.537 49.7699C110.537 49.0994 110.662 48.5085 110.912 47.9972C111.165 47.4858 111.517 47.0866 111.969 46.7997C112.423 46.5128 112.955 46.3693 113.563 46.3693C113.932 46.3693 114.29 46.4304 114.637 46.5526C114.983 46.6747 115.294 46.8665 115.57 47.1278C115.845 47.3892 116.063 47.7287 116.222 48.1463C116.381 48.5611 116.46 49.0653 116.46 49.6591V50.1108H111.257V49.1562H115.212C115.212 48.821 115.144 48.5241 115.007 48.2656C114.871 48.0043 114.679 47.7983 114.432 47.6477C114.188 47.4972 113.901 47.4219 113.571 47.4219C113.213 47.4219 112.901 47.5099 112.634 47.6861C112.369 47.8594 112.165 48.0866 112.02 48.3679C111.878 48.6463 111.807 48.9489 111.807 49.2756V50.0213C111.807 50.4588 111.884 50.831 112.037 51.1378C112.193 51.4446 112.411 51.679 112.689 51.8409C112.968 52 113.293 52.0795 113.665 52.0795C113.906 52.0795 114.127 52.0455 114.325 51.9773C114.524 51.9062 114.696 51.8011 114.841 51.6619C114.986 51.5227 115.097 51.3509 115.173 51.1463L116.379 51.3636C116.283 51.7187 116.11 52.0298 115.86 52.2969C115.612 52.5611 115.301 52.767 114.926 52.9148C114.554 53.0597 114.129 53.1321 113.652 53.1321ZM119.532 51.8068L119.468 52.2713C119.425 52.6122 119.353 52.9673 119.251 53.3366C119.151 53.7088 119.047 54.054 118.939 54.3722C118.834 54.6903 118.748 54.9432 118.68 55.1307H117.776C117.813 54.9545 117.864 54.7159 117.93 54.4148C117.995 54.1165 118.059 53.7827 118.121 53.4134C118.184 53.044 118.231 52.6676 118.262 52.2841L118.305 51.8068H119.532ZM125.206 53H123.808L126.949 44.2727H128.47L131.611 53H130.213L127.746 45.858H127.677L125.206 53ZM125.44 49.5824H129.974V50.6903H125.44V49.5824ZM138.483 44.2727H139.804V50.0128C139.804 50.6236 139.661 51.1648 139.374 51.6364C139.087 52.1051 138.683 52.4744 138.164 52.7443C137.644 53.0114 137.034 53.1449 136.335 53.1449C135.639 53.1449 135.031 53.0114 134.512 52.7443C133.992 52.4744 133.588 52.1051 133.301 51.6364C133.014 51.1648 132.871 50.6236 132.871 50.0128V44.2727H134.188V49.9062C134.188 50.3011 134.274 50.652 134.448 50.9588C134.624 51.2656 134.872 51.5071 135.193 51.6832C135.514 51.8565 135.895 51.9432 136.335 51.9432C136.779 51.9432 137.161 51.8565 137.482 51.6832C137.806 51.5071 138.053 51.2656 138.223 50.9588C138.396 50.652 138.483 50.3011 138.483 49.9062V44.2727ZM146.479 46.5653C146.433 46.1619 146.246 45.8494 145.916 45.6278C145.586 45.4034 145.172 45.2912 144.672 45.2912C144.314 45.2912 144.004 45.348 143.743 45.4616C143.481 45.5724 143.278 45.7259 143.133 45.9219C142.991 46.1151 142.92 46.3352 142.92 46.5824C142.92 46.7898 142.969 46.9687 143.065 47.1193C143.165 47.2699 143.294 47.3963 143.453 47.4986C143.615 47.598 143.788 47.6818 143.973 47.75C144.157 47.8153 144.335 47.8693 144.506 47.9119L145.358 48.1335C145.636 48.2017 145.922 48.294 146.214 48.4105C146.507 48.527 146.778 48.6804 147.028 48.8707C147.278 49.0611 147.48 49.2969 147.633 49.5781C147.79 49.8594 147.868 50.196 147.868 50.5881C147.868 51.0824 147.74 51.5213 147.484 51.9048C147.231 52.2884 146.863 52.5909 146.381 52.8125C145.9 53.0341 145.319 53.1449 144.638 53.1449C143.984 53.1449 143.419 53.0412 142.942 52.8338C142.464 52.6264 142.091 52.3324 141.821 51.9517C141.551 51.5682 141.402 51.1136 141.373 50.5881H142.694C142.72 50.9034 142.822 51.1662 143.001 51.3764C143.183 51.5838 143.415 51.7386 143.696 51.8409C143.98 51.9403 144.291 51.9901 144.629 51.9901C145.001 51.9901 145.332 51.9318 145.622 51.8153C145.915 51.696 146.145 51.5312 146.312 51.321C146.48 51.108 146.564 50.8594 146.564 50.5753C146.564 50.3168 146.49 50.1051 146.342 49.9403C146.197 49.7756 146 49.6392 145.75 49.5312C145.503 49.4233 145.223 49.3281 144.91 49.2457L143.879 48.9645C143.18 48.7741 142.626 48.4943 142.217 48.125C141.811 47.7557 141.608 47.267 141.608 46.6591C141.608 46.1562 141.744 45.7173 142.017 45.3423C142.29 44.9673 142.659 44.6761 143.125 44.4688C143.591 44.2585 144.116 44.1534 144.702 44.1534C145.292 44.1534 145.814 44.2571 146.265 44.4645C146.72 44.6719 147.078 44.9574 147.339 45.321C147.601 45.6818 147.737 46.0966 147.748 46.5653H146.479Z" fill="#344054"/>
<path d="M58.745 66.2727V75H57.6882V67.3807H57.6371L55.5064 68.7955V67.7216L57.6882 66.2727H58.745ZM64.1016 75.1193C63.4595 75.1193 62.9126 74.9446 62.4609 74.5952C62.0092 74.2429 61.6641 73.733 61.4254 73.0653C61.1868 72.3949 61.0675 71.5852 61.0675 70.6364C61.0675 69.6932 61.1868 68.8878 61.4254 68.2202C61.6669 67.5497 62.0135 67.0384 62.4652 66.6861C62.9197 66.331 63.4652 66.1534 64.1016 66.1534C64.7379 66.1534 65.282 66.331 65.7337 66.6861C66.1882 67.0384 66.5348 67.5497 66.7734 68.2202C67.0149 68.8878 67.1357 69.6932 67.1357 70.6364C67.1357 71.5852 67.0163 72.3949 66.7777 73.0653C66.5391 73.733 66.1939 74.2429 65.7422 74.5952C65.2905 74.9446 64.7436 75.1193 64.1016 75.1193ZM64.1016 74.1818C64.7379 74.1818 65.2322 73.875 65.5845 73.2614C65.9368 72.6477 66.1129 71.7727 66.1129 70.6364C66.1129 69.8807 66.032 69.2372 65.87 68.706C65.7109 68.1747 65.4808 67.7699 65.1797 67.4915C64.8814 67.2131 64.522 67.0739 64.1016 67.0739C63.4709 67.0739 62.978 67.3849 62.6229 68.0071C62.2678 68.6264 62.0902 69.5028 62.0902 70.6364C62.0902 71.392 62.1697 72.0341 62.3288 72.5625C62.4879 73.0909 62.7166 73.4929 63.0149 73.7685C63.3161 74.044 63.6783 74.1818 64.1016 74.1818ZM71.6016 75.1193C70.9595 75.1193 70.4126 74.9446 69.9609 74.5952C69.5092 74.2429 69.1641 73.733 68.9254 73.0653C68.6868 72.3949 68.5675 71.5852 68.5675 70.6364C68.5675 69.6932 68.6868 68.8878 68.9254 68.2202C69.1669 67.5497 69.5135 67.0384 69.9652 66.6861C70.4197 66.331 70.9652 66.1534 71.6016 66.1534C72.2379 66.1534 72.782 66.331 73.2337 66.6861C73.6882 67.0384 74.0348 67.5497 74.2734 68.2202C74.5149 68.8878 74.6357 69.6932 74.6357 70.6364C74.6357 71.5852 74.5163 72.3949 74.2777 73.0653C74.0391 73.733 73.6939 74.2429 73.2422 74.5952C72.7905 74.9446 72.2436 75.1193 71.6016 75.1193ZM71.6016 74.1818C72.2379 74.1818 72.7322 73.875 73.0845 73.2614C73.4368 72.6477 73.6129 71.7727 73.6129 70.6364C73.6129 69.8807 73.532 69.2372 73.37 68.706C73.2109 68.1747 72.9808 67.7699 72.6797 67.4915C72.3814 67.2131 72.022 67.0739 71.6016 67.0739C70.9709 67.0739 70.478 67.3849 70.1229 68.0071C69.7678 68.6264 69.5902 69.5028 69.5902 70.6364C69.5902 71.392 69.6697 72.0341 69.8288 72.5625C69.9879 73.0909 70.2166 73.4929 70.5149 73.7685C70.8161 74.044 71.1783 74.1818 71.6016 74.1818ZM84.5561 68.4545C84.505 68.0227 84.2976 67.6875 83.9339 67.4489C83.5703 67.2102 83.1243 67.0909 82.5959 67.0909C82.2095 67.0909 81.8714 67.1534 81.5817 67.2784C81.2947 67.4034 81.0703 67.5753 80.9084 67.794C80.7493 68.0128 80.6697 68.2614 80.6697 68.5398C80.6697 68.7727 80.7251 68.973 80.8359 69.1406C80.9496 69.3054 81.0945 69.4432 81.2706 69.554C81.4467 69.6619 81.6314 69.7514 81.8246 69.8224C82.0178 69.8906 82.1953 69.946 82.3572 69.9886L83.2436 70.2273C83.4709 70.2869 83.7237 70.3693 84.0021 70.4744C84.2834 70.5795 84.5518 70.723 84.8075 70.9048C85.0661 71.0838 85.2791 71.3139 85.4467 71.5952C85.6143 71.8764 85.6982 72.2216 85.6982 72.6307C85.6982 73.1023 85.5746 73.5284 85.3274 73.9091C85.0831 74.2898 84.7251 74.5923 84.2536 74.8168C83.7848 75.0412 83.2152 75.1534 82.5447 75.1534C81.9197 75.1534 81.3786 75.0526 80.9212 74.8509C80.4666 74.6491 80.1087 74.3679 79.8473 74.0071C79.5888 73.6463 79.4425 73.2273 79.4084 72.75H80.4993C80.5277 73.0795 80.6385 73.3523 80.8317 73.5682C81.0277 73.7812 81.2749 73.9403 81.5732 74.0455C81.8743 74.1477 82.1982 74.1989 82.5447 74.1989C82.9482 74.1989 83.3104 74.1335 83.6314 74.0028C83.9524 73.8693 84.2067 73.6847 84.3942 73.4489C84.5817 73.2102 84.6754 72.9318 84.6754 72.6136C84.6754 72.3239 84.5945 72.0881 84.4325 71.9062C84.2706 71.7244 84.0575 71.5767 83.7933 71.4631C83.5291 71.3494 83.2436 71.25 82.9368 71.1648L81.8629 70.858C81.1811 70.6619 80.6413 70.3821 80.2436 70.0185C79.8459 69.6548 79.647 69.179 79.647 68.5909C79.647 68.1023 79.7791 67.6761 80.0433 67.3125C80.3104 66.946 80.6683 66.6619 81.1172 66.4602C81.5689 66.2557 82.0732 66.1534 82.63 66.1534C83.1925 66.1534 83.6925 66.2543 84.13 66.456C84.5675 66.6548 84.9141 66.9276 85.1697 67.2741C85.4283 67.6207 85.5646 68.0142 85.5788 68.4545H84.5561ZM87.2994 75V68.4545H88.271V69.4773H88.3562C88.4925 69.1278 88.7127 68.8565 89.0167 68.6634C89.3207 68.4673 89.6857 68.3693 90.1119 68.3693C90.5437 68.3693 90.9031 68.4673 91.19 68.6634C91.4798 68.8565 91.7056 69.1278 91.8675 69.4773H91.9357C92.1033 69.1392 92.3548 68.8707 92.69 68.6719C93.0252 68.4702 93.4272 68.3693 93.896 68.3693C94.4812 68.3693 94.9599 68.5526 95.332 68.919C95.7042 69.2827 95.8903 69.8494 95.8903 70.6193V75H94.8846V70.6193C94.8846 70.1364 94.7525 69.7912 94.4883 69.5838C94.2241 69.3764 93.913 69.2727 93.555 69.2727C93.0948 69.2727 92.7383 69.4119 92.4854 69.6903C92.2326 69.9659 92.1062 70.3153 92.1062 70.7386V75H91.0835V70.517C91.0835 70.1449 90.9627 69.8452 90.7212 69.6179C90.4798 69.3878 90.1687 69.2727 89.788 69.2727C89.5266 69.2727 89.2823 69.3423 89.055 69.4815C88.8306 69.6207 88.6488 69.8139 88.5096 70.0611C88.3732 70.3054 88.305 70.5881 88.305 70.9091V75H87.2994ZM97.729 75V68.4545H98.7347V75H97.729ZM98.2404 67.3636C98.0444 67.3636 97.8754 67.2969 97.7333 67.1634C97.5941 67.0298 97.5245 66.8693 97.5245 66.6818C97.5245 66.4943 97.5941 66.3338 97.7333 66.2003C97.8754 66.0668 98.0444 66 98.2404 66C98.4364 66 98.604 66.0668 98.7433 66.2003C98.8853 66.3338 98.9563 66.4943 98.9563 66.6818C98.9563 66.8693 98.8853 67.0298 98.7433 67.1634C98.604 67.2969 98.4364 67.3636 98.2404 67.3636ZM103.423 68.4545V69.3068H100.031V68.4545H103.423ZM101.02 66.8864H102.026V73.125C102.026 73.4091 102.067 73.6222 102.149 73.7642C102.234 73.9034 102.342 73.9972 102.473 74.0455C102.607 74.0909 102.747 74.1136 102.895 74.1136C103.006 74.1136 103.097 74.108 103.168 74.0966C103.239 74.0824 103.295 74.071 103.338 74.0625L103.543 74.9659C103.474 74.9915 103.379 75.017 103.257 75.0426C103.135 75.071 102.98 75.0852 102.793 75.0852C102.509 75.0852 102.23 75.0241 101.957 74.902C101.688 74.7798 101.463 74.5938 101.284 74.3438C101.108 74.0938 101.02 73.7784 101.02 73.3977V66.8864ZM106.082 71.0625V75H105.077V66.2727H106.082V69.4773H106.168C106.321 69.1392 106.551 68.8707 106.858 68.6719C107.168 68.4702 107.58 68.3693 108.094 68.3693C108.54 68.3693 108.93 68.4588 109.266 68.6378C109.601 68.8139 109.861 69.0852 110.045 69.4517C110.233 69.8153 110.327 70.2784 110.327 70.8409V75H109.321V70.9091C109.321 70.3892 109.186 69.9872 108.916 69.7031C108.649 69.4162 108.278 69.2727 107.804 69.2727C107.474 69.2727 107.179 69.3423 106.918 69.4815C106.659 69.6207 106.455 69.8239 106.304 70.0909C106.156 70.358 106.082 70.6818 106.082 71.0625ZM120.451 68.4545C120.4 68.0227 120.192 67.6875 119.828 67.4489C119.465 67.2102 119.019 67.0909 118.49 67.0909C118.104 67.0909 117.766 67.1534 117.476 67.2784C117.189 67.4034 116.965 67.5753 116.803 67.794C116.644 68.0128 116.564 68.2614 116.564 68.5398C116.564 68.7727 116.62 68.973 116.73 69.1406C116.844 69.3054 116.989 69.4432 117.165 69.554C117.341 69.6619 117.526 69.7514 117.719 69.8224C117.912 69.8906 118.09 69.946 118.252 69.9886L119.138 70.2273C119.365 70.2869 119.618 70.3693 119.897 70.4744C120.178 70.5795 120.446 70.723 120.702 70.9048C120.961 71.0838 121.174 71.3139 121.341 71.5952C121.509 71.8764 121.593 72.2216 121.593 72.6307C121.593 73.1023 121.469 73.5284 121.222 73.9091C120.978 74.2898 120.62 74.5923 120.148 74.8168C119.679 75.0412 119.11 75.1534 118.439 75.1534C117.814 75.1534 117.273 75.0526 116.816 74.8509C116.361 74.6491 116.003 74.3679 115.742 74.0071C115.483 73.6463 115.337 73.2273 115.303 72.75H116.394C116.422 73.0795 116.533 73.3523 116.726 73.5682C116.922 73.7812 117.169 73.9403 117.468 74.0455C117.769 74.1477 118.093 74.1989 118.439 74.1989C118.843 74.1989 119.205 74.1335 119.526 74.0028C119.847 73.8693 120.101 73.6847 120.289 73.4489C120.476 73.2102 120.57 72.9318 120.57 72.6136C120.57 72.3239 120.489 72.0881 120.327 71.9062C120.165 71.7244 119.952 71.5767 119.688 71.4631C119.424 71.3494 119.138 71.25 118.831 71.1648L117.757 70.858C117.076 70.6619 116.536 70.3821 116.138 70.0185C115.74 69.6548 115.542 69.179 115.542 68.5909C115.542 68.1023 115.674 67.6761 115.938 67.3125C116.205 66.946 116.563 66.6619 117.012 66.4602C117.463 66.2557 117.968 66.1534 118.525 66.1534C119.087 66.1534 119.587 66.2543 120.025 66.456C120.462 66.6548 120.809 66.9276 121.064 67.2741C121.323 67.6207 121.459 68.0142 121.473 68.4545H120.451ZM126.04 68.4545V69.3068H122.648V68.4545H126.04ZM123.637 66.8864H124.643V73.125C124.643 73.4091 124.684 73.6222 124.766 73.7642C124.852 73.9034 124.96 73.9972 125.09 74.0455C125.224 74.0909 125.364 74.1136 125.512 74.1136C125.623 74.1136 125.714 74.108 125.785 74.0966C125.856 74.0824 125.913 74.071 125.955 74.0625L126.16 74.9659C126.092 74.9915 125.996 75.017 125.874 75.0426C125.752 75.071 125.597 75.0852 125.41 75.0852C125.126 75.0852 124.847 75.0241 124.575 74.902C124.305 74.7798 124.08 74.5938 123.901 74.3438C123.725 74.0938 123.637 73.7784 123.637 73.3977V66.8864ZM127.553 75V68.4545H128.525V69.4432H128.593C128.712 69.1193 128.928 68.8565 129.241 68.6548C129.553 68.4531 129.906 68.3523 130.298 68.3523C130.371 68.3523 130.464 68.3537 130.575 68.3565C130.685 68.3594 130.769 68.3636 130.826 68.3693V69.392C130.792 69.3835 130.714 69.3707 130.592 69.3537C130.472 69.3338 130.346 69.3239 130.212 69.3239C129.894 69.3239 129.61 69.3906 129.36 69.5241C129.113 69.6548 128.917 69.8366 128.772 70.0696C128.63 70.2997 128.559 70.5625 128.559 70.858V75H127.553ZM134.563 75.1364C133.933 75.1364 133.388 74.9972 132.931 74.7188C132.477 74.4375 132.126 74.0455 131.879 73.5426C131.634 73.0369 131.512 72.4489 131.512 71.7784C131.512 71.108 131.634 70.517 131.879 70.0057C132.126 69.4915 132.469 69.0909 132.91 68.804C133.353 68.5142 133.87 68.3693 134.461 68.3693C134.802 68.3693 135.138 68.4261 135.471 68.5398C135.803 68.6534 136.106 68.8381 136.379 69.0938C136.651 69.3466 136.869 69.6818 137.031 70.0994C137.192 70.517 137.273 71.0312 137.273 71.642V72.0682H132.228V71.1989H136.251C136.251 70.8295 136.177 70.5 136.029 70.2102C135.884 69.9205 135.677 69.6918 135.407 69.5241C135.14 69.3565 134.825 69.2727 134.461 69.2727C134.06 69.2727 133.714 69.3722 133.421 69.571C133.131 69.767 132.908 70.0227 132.752 70.3381C132.596 70.6534 132.518 70.9915 132.518 71.3523V71.9318C132.518 72.4261 132.603 72.8452 132.773 73.1889C132.947 73.5298 133.187 73.7898 133.494 73.9688C133.8 74.1449 134.157 74.233 134.563 74.233C134.827 74.233 135.066 74.196 135.279 74.1222C135.495 74.0455 135.681 73.9318 135.837 73.7812C135.994 73.6278 136.114 73.4375 136.2 73.2102L137.171 73.483C137.069 73.8125 136.897 74.1023 136.656 74.3523C136.414 74.5994 136.116 74.7926 135.761 74.9318C135.406 75.0682 135.006 75.1364 134.563 75.1364ZM141.548 75.1364C140.917 75.1364 140.373 74.9972 139.915 74.7188C139.461 74.4375 139.11 74.0455 138.863 73.5426C138.619 73.0369 138.496 72.4489 138.496 71.7784C138.496 71.108 138.619 70.517 138.863 70.0057C139.11 69.4915 139.454 69.0909 139.894 68.804C140.337 68.5142 140.854 68.3693 141.445 68.3693C141.786 68.3693 142.123 68.4261 142.455 68.5398C142.788 68.6534 143.09 68.8381 143.363 69.0938C143.636 69.3466 143.853 69.6818 144.015 70.0994C144.177 70.517 144.258 71.0312 144.258 71.642V72.0682H139.212V71.1989H143.235C143.235 70.8295 143.161 70.5 143.013 70.2102C142.869 69.9205 142.661 69.6918 142.391 69.5241C142.124 69.3565 141.809 69.2727 141.445 69.2727C141.045 69.2727 140.698 69.3722 140.406 69.571C140.116 69.767 139.893 70.0227 139.737 70.3381C139.58 70.6534 139.502 70.9915 139.502 71.3523V71.9318C139.502 72.4261 139.587 72.8452 139.758 73.1889C139.931 73.5298 140.171 73.7898 140.478 73.9688C140.785 74.1449 141.141 74.233 141.548 74.233C141.812 74.233 142.05 74.196 142.263 74.1222C142.479 74.0455 142.665 73.9318 142.822 73.7812C142.978 73.6278 143.099 73.4375 143.184 73.2102L144.156 73.483C144.053 73.8125 143.881 74.1023 143.64 74.3523C143.398 74.5994 143.1 74.7926 142.745 74.9318C142.39 75.0682 141.991 75.1364 141.548 75.1364ZM148.634 68.4545V69.3068H145.242V68.4545H148.634ZM146.231 66.8864H147.237V73.125C147.237 73.4091 147.278 73.6222 147.36 73.7642C147.445 73.9034 147.553 73.9972 147.684 74.0455C147.817 74.0909 147.958 74.1136 148.106 74.1136C148.217 74.1136 148.308 74.108 148.379 74.0966C148.45 74.0824 148.506 74.071 148.549 74.0625L148.754 74.9659C148.685 74.9915 148.59 75.017 148.468 75.0426C148.346 75.071 148.191 75.0852 148.004 75.0852C147.719 75.0852 147.441 75.0241 147.168 74.902C146.898 74.7798 146.674 74.5938 146.495 74.3438C146.319 74.0938 146.231 73.7784 146.231 73.3977V66.8864ZM36.4155 87H35.3587C35.2962 86.696 35.1868 86.429 35.0305 86.1989C34.8771 85.9688 34.6896 85.7756 34.468 85.6193C34.2493 85.4602 34.0064 85.3409 33.7393 85.2614C33.4723 85.1818 33.1939 85.142 32.9041 85.142C32.3757 85.142 31.897 85.2756 31.468 85.5426C31.0419 85.8097 30.7024 86.2031 30.4496 86.723C30.1996 87.2429 30.0746 87.8807 30.0746 88.6364C30.0746 89.392 30.1996 90.0298 30.4496 90.5497C30.7024 91.0696 31.0419 91.4631 31.468 91.7301C31.897 91.9972 32.3757 92.1307 32.9041 92.1307C33.1939 92.1307 33.4723 92.0909 33.7393 92.0114C34.0064 91.9318 34.2493 91.8139 34.468 91.6577C34.6896 91.4986 34.8771 91.304 35.0305 91.0739C35.1868 90.8409 35.2962 90.5739 35.3587 90.2727H36.4155C36.3359 90.7187 36.1911 91.1179 35.9808 91.4702C35.7706 91.8224 35.5092 92.1222 35.1967 92.3693C34.8842 92.6136 34.5334 92.7997 34.1442 92.9276C33.7578 93.0554 33.3445 93.1193 32.9041 93.1193C32.1598 93.1193 31.4979 92.9375 30.9183 92.5739C30.3388 92.2102 29.8828 91.6932 29.5504 91.0227C29.218 90.3523 29.0518 89.5568 29.0518 88.6364C29.0518 87.7159 29.218 86.9205 29.5504 86.25C29.8828 85.5795 30.3388 85.0625 30.9183 84.6989C31.4979 84.3352 32.1598 84.1534 32.9041 84.1534C33.3445 84.1534 33.7578 84.2173 34.1442 84.3452C34.5334 84.473 34.8842 84.6605 35.1967 84.9077C35.5092 85.152 35.7706 85.4503 35.9808 85.8026C36.1911 86.152 36.3359 86.5511 36.4155 87ZM40.646 93.1364C40.055 93.1364 39.5366 92.9957 39.0906 92.7145C38.6474 92.4332 38.3008 92.0398 38.0508 91.5341C37.8036 91.0284 37.68 90.4375 37.68 89.7614C37.68 89.0795 37.8036 88.4844 38.0508 87.9759C38.3008 87.4673 38.6474 87.0724 39.0906 86.7912C39.5366 86.5099 40.055 86.3693 40.646 86.3693C41.2369 86.3693 41.7539 86.5099 42.1971 86.7912C42.6431 87.0724 42.9897 87.4673 43.2369 87.9759C43.4869 88.4844 43.6119 89.0795 43.6119 89.7614C43.6119 90.4375 43.4869 91.0284 43.2369 91.5341C42.9897 92.0398 42.6431 92.4332 42.1971 92.7145C41.7539 92.9957 41.2369 93.1364 40.646 93.1364ZM40.646 92.233C41.0948 92.233 41.4641 92.1179 41.7539 91.8878C42.0437 91.6577 42.2582 91.3551 42.3974 90.9801C42.5366 90.6051 42.6062 90.1989 42.6062 89.7614C42.6062 89.3239 42.5366 88.9162 42.3974 88.5384C42.2582 88.1605 42.0437 87.8551 41.7539 87.6222C41.4641 87.3892 41.0948 87.2727 40.646 87.2727C40.1971 87.2727 39.8278 87.3892 39.538 87.6222C39.2482 87.8551 39.0337 88.1605 38.8945 88.5384C38.7553 88.9162 38.6857 89.3239 38.6857 89.7614C38.6857 90.1989 38.7553 90.6051 38.8945 90.9801C39.0337 91.3551 39.2482 91.6577 39.538 91.8878C39.8278 92.1179 40.1971 92.233 40.646 92.233ZM46.1527 84.2727V93H45.147V84.2727H46.1527ZM49.0004 84.2727V93H47.9947V84.2727H49.0004ZM50.8423 93V86.4545H51.848V93H50.8423ZM51.3537 85.3636C51.1577 85.3636 50.9886 85.2969 50.8466 85.1634C50.7074 85.0298 50.6378 84.8693 50.6378 84.6818C50.6378 84.4943 50.7074 84.3338 50.8466 84.2003C50.9886 84.0668 51.1577 84 51.3537 84C51.5497 84 51.7173 84.0668 51.8565 84.2003C51.9986 84.3338 52.0696 84.4943 52.0696 84.6818C52.0696 84.8693 51.9986 85.0298 51.8565 85.1634C51.7173 85.2969 51.5497 85.3636 51.3537 85.3636ZM54.6957 89.0625V93H53.69V86.4545H54.6616V87.4773H54.7468C54.9002 87.1449 55.1332 86.8778 55.4457 86.6761C55.7582 86.4716 56.1616 86.3693 56.6559 86.3693C57.0991 86.3693 57.4869 86.4602 57.8192 86.642C58.1516 86.821 58.4102 87.0938 58.5948 87.4602C58.7795 87.8239 58.8718 88.2841 58.8718 88.8409V93H57.8661V88.9091C57.8661 88.3949 57.7326 87.9943 57.4656 87.7074C57.1985 87.4176 56.832 87.2727 56.3661 87.2727C56.0451 87.2727 55.7582 87.3423 55.5053 87.4815C55.2553 87.6207 55.0579 87.8239 54.913 88.0909C54.7681 88.358 54.6957 88.6818 54.6957 89.0625ZM63.3516 95.5909C62.8658 95.5909 62.4482 95.5284 62.0987 95.4034C61.7493 95.2812 61.4581 95.1193 61.2251 94.9176C60.995 94.7188 60.8118 94.5057 60.6754 94.2784L61.4766 93.7159C61.5675 93.8352 61.6825 93.9716 61.8217 94.125C61.9609 94.2812 62.1513 94.4162 62.3928 94.5298C62.6371 94.6463 62.9567 94.7045 63.3516 94.7045C63.88 94.7045 64.3161 94.5767 64.6598 94.321C65.0036 94.0653 65.1754 93.6648 65.1754 93.1193V91.7898H65.0902C65.0163 91.9091 64.9112 92.0568 64.7749 92.233C64.6413 92.4062 64.4482 92.5611 64.1953 92.6974C63.9453 92.831 63.6072 92.8977 63.1811 92.8977C62.6527 92.8977 62.1783 92.7727 61.7578 92.5227C61.3402 92.2727 61.0092 91.9091 60.7649 91.4318C60.5234 90.9545 60.4027 90.375 60.4027 89.6932C60.4027 89.0227 60.5206 88.4389 60.7564 87.9418C60.9922 87.4418 61.3203 87.0554 61.7408 86.7827C62.1612 86.5071 62.647 86.3693 63.1982 86.3693C63.6243 86.3693 63.9624 86.4403 64.2124 86.5824C64.4652 86.7216 64.6584 86.8807 64.7919 87.0597C64.9283 87.2358 65.0334 87.3807 65.1072 87.4943H65.2095V86.4545H66.1811V93.1875C66.1811 93.75 66.0533 94.2074 65.7976 94.5597C65.5447 94.9148 65.2038 95.1747 64.7749 95.3395C64.3487 95.5071 63.8743 95.5909 63.3516 95.5909ZM63.3175 91.9943C63.7209 91.9943 64.0618 91.902 64.3402 91.7173C64.6186 91.5327 64.8303 91.267 64.9751 90.9205C65.12 90.5739 65.1925 90.1591 65.1925 89.6761C65.1925 89.2045 65.1214 88.7884 64.9794 88.4276C64.8374 88.0668 64.6271 87.7841 64.3487 87.5795C64.0703 87.375 63.7266 87.2727 63.3175 87.2727C62.8913 87.2727 62.5362 87.3807 62.2521 87.5966C61.9709 87.8125 61.7592 88.1023 61.6172 88.4659C61.478 88.8295 61.4084 89.233 61.4084 89.6761C61.4084 90.1307 61.4794 90.5327 61.6214 90.8821C61.7663 91.2287 61.9794 91.5014 62.2607 91.7003C62.5447 91.8963 62.897 91.9943 63.3175 91.9943ZM69.505 93L67.5107 86.4545H68.5675L69.9822 91.4659H70.0504L71.4482 86.4545H72.522L73.9027 91.4489H73.9709L75.3857 86.4545H76.4425L74.4482 93H73.4595L72.0277 87.9716H71.9254L70.4936 93H69.505ZM80.2085 93.1364C79.6175 93.1364 79.0991 92.9957 78.6531 92.7145C78.2099 92.4332 77.8633 92.0398 77.6133 91.5341C77.3661 91.0284 77.2425 90.4375 77.2425 89.7614C77.2425 89.0795 77.3661 88.4844 77.6133 87.9759C77.8633 87.4673 78.2099 87.0724 78.6531 86.7912C79.0991 86.5099 79.6175 86.3693 80.2085 86.3693C80.7994 86.3693 81.3164 86.5099 81.7596 86.7912C82.2056 87.0724 82.5522 87.4673 82.7994 87.9759C83.0494 88.4844 83.1744 89.0795 83.1744 89.7614C83.1744 90.4375 83.0494 91.0284 82.7994 91.5341C82.5522 92.0398 82.2056 92.4332 81.7596 92.7145C81.3164 92.9957 80.7994 93.1364 80.2085 93.1364ZM80.2085 92.233C80.6573 92.233 81.0266 92.1179 81.3164 91.8878C81.6062 91.6577 81.8207 91.3551 81.9599 90.9801C82.0991 90.6051 82.1687 90.1989 82.1687 89.7614C82.1687 89.3239 82.0991 88.9162 81.9599 88.5384C81.8207 88.1605 81.6062 87.8551 81.3164 87.6222C81.0266 87.3892 80.6573 87.2727 80.2085 87.2727C79.7596 87.2727 79.3903 87.3892 79.1005 87.6222C78.8107 87.8551 78.5962 88.1605 78.457 88.5384C78.3178 88.9162 78.2482 89.3239 78.2482 89.7614C78.2482 90.1989 78.3178 90.6051 78.457 90.9801C78.5962 91.3551 78.8107 91.6577 79.1005 91.8878C79.3903 92.1179 79.7596 92.233 80.2085 92.233ZM87.3686 93.1364C86.7777 93.1364 86.2592 92.9957 85.8132 92.7145C85.37 92.4332 85.0234 92.0398 84.7734 91.5341C84.5263 91.0284 84.4027 90.4375 84.4027 89.7614C84.4027 89.0795 84.5263 88.4844 84.7734 87.9759C85.0234 87.4673 85.37 87.0724 85.8132 86.7912C86.2592 86.5099 86.7777 86.3693 87.3686 86.3693C87.9595 86.3693 88.4766 86.5099 88.9197 86.7912C89.3658 87.0724 89.7124 87.4673 89.9595 87.9759C90.2095 88.4844 90.3345 89.0795 90.3345 89.7614C90.3345 90.4375 90.2095 91.0284 89.9595 91.5341C89.7124 92.0398 89.3658 92.4332 88.9197 92.7145C88.4766 92.9957 87.9595 93.1364 87.3686 93.1364ZM87.3686 92.233C87.8175 92.233 88.1868 92.1179 88.4766 91.8878C88.7663 91.6577 88.9808 91.3551 89.12 90.9801C89.2592 90.6051 89.3288 90.1989 89.3288 89.7614C89.3288 89.3239 89.2592 88.9162 89.12 88.5384C88.9808 88.1605 88.7663 87.8551 88.4766 87.6222C88.1868 87.3892 87.8175 87.2727 87.3686 87.2727C86.9197 87.2727 86.5504 87.3892 86.2607 87.6222C85.9709 87.8551 85.7564 88.1605 85.6172 88.5384C85.478 88.9162 85.4084 89.3239 85.4084 89.7614C85.4084 90.1989 85.478 90.6051 85.6172 90.9801C85.7564 91.3551 85.9709 91.6577 86.2607 91.8878C86.5504 92.1179 86.9197 92.233 87.3686 92.233ZM94.3413 93.1364C93.7958 93.1364 93.3143 92.9986 92.8967 92.723C92.479 92.4446 92.1523 92.0526 91.9165 91.5469C91.6808 91.0384 91.5629 90.4375 91.5629 89.7443C91.5629 89.0568 91.6808 88.4602 91.9165 87.9545C92.1523 87.4489 92.4805 87.0582 92.9009 86.7827C93.3214 86.5071 93.8072 86.3693 94.3583 86.3693C94.7844 86.3693 95.1211 86.4403 95.3683 86.5824C95.6183 86.7216 95.8086 86.8807 95.9393 87.0597C96.0728 87.2358 96.1765 87.3807 96.2504 87.4943H96.3356V84.2727H97.3413V93H96.3697V91.9943H96.2504C96.1765 92.1136 96.0714 92.2642 95.935 92.446C95.7987 92.625 95.604 92.7855 95.3512 92.9276C95.0984 93.0668 94.7617 93.1364 94.3413 93.1364ZM94.4776 92.233C94.881 92.233 95.2219 92.1278 95.5004 91.9176C95.7788 91.7045 95.9904 91.4105 96.1353 91.0355C96.2802 90.6577 96.3526 90.2216 96.3526 89.7273C96.3526 89.2386 96.2816 88.8111 96.1396 88.4446C95.9975 88.0753 95.7873 87.7884 95.5089 87.5838C95.2305 87.3764 94.8867 87.2727 94.4776 87.2727C94.0515 87.2727 93.6964 87.3821 93.4123 87.6009C93.131 87.8168 92.9194 88.1108 92.7773 88.483C92.6381 88.8523 92.5685 89.267 92.5685 89.7273C92.5685 90.1932 92.6396 90.6165 92.7816 90.9972C92.9265 91.375 93.1396 91.6761 93.4208 91.9006C93.7049 92.1222 94.0572 92.233 94.4776 92.233ZM103.192 84.2727L105.783 91.6193H105.885L108.476 84.2727H109.584L106.38 93H105.289L102.084 84.2727H103.192ZM112 84.2727V93H110.944V84.2727H112ZM121.142 87H120.085C120.023 86.696 119.913 86.429 119.757 86.1989C119.604 85.9688 119.416 85.7756 119.195 85.6193C118.976 85.4602 118.733 85.3409 118.466 85.2614C118.199 85.1818 117.92 85.142 117.631 85.142C117.102 85.142 116.624 85.2756 116.195 85.5426C115.768 85.8097 115.429 86.2031 115.176 86.723C114.926 87.2429 114.801 87.8807 114.801 88.6364C114.801 89.392 114.926 90.0298 115.176 90.5497C115.429 91.0696 115.768 91.4631 116.195 91.7301C116.624 91.9972 117.102 92.1307 117.631 92.1307C117.92 92.1307 118.199 92.0909 118.466 92.0114C118.733 91.9318 118.976 91.8139 119.195 91.6577C119.416 91.4986 119.604 91.304 119.757 91.0739C119.913 90.8409 120.023 90.5739 120.085 90.2727H121.142C121.063 90.7187 120.918 91.1179 120.707 91.4702C120.497 91.8224 120.236 92.1222 119.923 92.3693C119.611 92.6136 119.26 92.7997 118.871 92.9276C118.484 93.0554 118.071 93.1193 117.631 93.1193C116.886 93.1193 116.224 92.9375 115.645 92.5739C115.065 92.2102 114.609 91.6932 114.277 91.0227C113.945 90.3523 113.778 89.5568 113.778 88.6364C113.778 87.7159 113.945 86.9205 114.277 86.25C114.609 85.5795 115.065 85.0625 115.645 84.6989C116.224 84.3352 116.886 84.1534 117.631 84.1534C118.071 84.1534 118.484 84.2173 118.871 84.3452C119.26 84.473 119.611 84.6605 119.923 84.9077C120.236 85.152 120.497 85.4503 120.707 85.8026C120.918 86.152 121.063 86.5511 121.142 87ZM129.02 93.1193C128.458 93.1193 127.956 93.0227 127.516 92.8295C127.078 92.6364 126.73 92.3679 126.472 92.0241C126.216 91.6776 126.077 91.2756 126.054 90.8182H127.128C127.151 91.0994 127.248 91.3423 127.418 91.5469C127.588 91.7486 127.811 91.9048 128.087 92.0156C128.363 92.1264 128.668 92.1818 129.003 92.1818C129.378 92.1818 129.711 92.1165 130 91.9858C130.29 91.8551 130.517 91.6733 130.682 91.4403C130.847 91.2074 130.929 90.9375 130.929 90.6307C130.929 90.3097 130.85 90.027 130.691 89.7827C130.532 89.5355 130.299 89.3423 129.992 89.2031C129.685 89.0639 129.31 88.9943 128.867 88.9943H128.168V88.0568H128.867C129.213 88.0568 129.517 87.9943 129.779 87.8693C130.043 87.7443 130.249 87.5682 130.397 87.3409C130.547 87.1136 130.623 86.8466 130.623 86.5398C130.623 86.2443 130.557 85.9872 130.426 85.7685C130.296 85.5497 130.111 85.3793 129.873 85.2571C129.637 85.1349 129.358 85.0739 129.037 85.0739C128.736 85.0739 128.452 85.1293 128.185 85.2401C127.921 85.348 127.705 85.5057 127.537 85.7131C127.37 85.9176 127.279 86.1648 127.265 86.4545H126.242C126.259 85.9972 126.397 85.5966 126.655 85.2528C126.914 84.9062 127.252 84.6364 127.669 84.4432C128.09 84.25 128.551 84.1534 129.054 84.1534C129.594 84.1534 130.057 84.2628 130.444 84.4815C130.83 84.6974 131.127 84.983 131.334 85.3381C131.542 85.6932 131.645 86.0767 131.645 86.4886C131.645 86.9801 131.516 87.3991 131.257 87.7457C131.002 88.0923 130.654 88.3324 130.213 88.4659V88.5341C130.765 88.625 131.195 88.8594 131.505 89.2372C131.814 89.6122 131.969 90.0767 131.969 90.6307C131.969 91.1051 131.84 91.5312 131.581 91.9091C131.326 92.2841 130.976 92.5795 130.533 92.7955C130.09 93.0114 129.586 93.1193 129.02 93.1193ZM136.559 93.1193C135.917 93.1193 135.37 92.9446 134.918 92.5952C134.466 92.2429 134.121 91.733 133.882 91.0653C133.644 90.3949 133.525 89.5852 133.525 88.6364C133.525 87.6932 133.644 86.8878 133.882 86.2202C134.124 85.5497 134.471 85.0384 134.922 84.6861C135.377 84.331 135.922 84.1534 136.559 84.1534C137.195 84.1534 137.739 84.331 138.191 84.6861C138.645 85.0384 138.992 85.5497 139.23 86.2202C139.472 86.8878 139.593 87.6932 139.593 88.6364C139.593 89.5852 139.473 90.3949 139.235 91.0653C138.996 91.733 138.651 92.2429 138.199 92.5952C137.748 92.9446 137.201 93.1193 136.559 93.1193ZM136.559 92.1818C137.195 92.1818 137.689 91.875 138.042 91.2614C138.394 90.6477 138.57 89.7727 138.57 88.6364C138.57 87.8807 138.489 87.2372 138.327 86.706C138.168 86.1747 137.938 85.7699 137.637 85.4915C137.338 85.2131 136.979 85.0739 136.559 85.0739C135.928 85.0739 135.435 85.3849 135.08 86.0071C134.725 86.6264 134.547 87.5028 134.547 88.6364C134.547 89.392 134.627 90.0341 134.786 90.5625C134.945 91.0909 135.174 91.4929 135.472 91.7685C135.773 92.044 136.135 92.1818 136.559 92.1818ZM144.11 93.1193C143.752 93.1136 143.394 93.0455 143.036 92.9148C142.678 92.7841 142.351 92.5639 142.056 92.2543C141.76 91.9418 141.523 91.5199 141.344 90.9886C141.165 90.4545 141.076 89.7841 141.076 88.9773C141.076 88.2045 141.148 87.5199 141.293 86.9233C141.438 86.3239 141.648 85.8196 141.924 85.4105C142.199 84.9986 142.532 84.6861 142.921 84.473C143.313 84.2599 143.755 84.1534 144.246 84.1534C144.735 84.1534 145.169 84.2514 145.55 84.4474C145.934 84.6406 146.246 84.9105 146.488 85.2571C146.729 85.6037 146.885 86.0028 146.956 86.4545H145.917C145.82 86.0625 145.632 85.7372 145.354 85.4787C145.076 85.2202 144.706 85.0909 144.246 85.0909C143.57 85.0909 143.037 85.3849 142.648 85.973C142.262 86.5611 142.067 87.3864 142.064 88.4489H142.132C142.292 88.2074 142.48 88.0014 142.699 87.831C142.921 87.6577 143.165 87.5241 143.432 87.4304C143.699 87.3366 143.982 87.2898 144.28 87.2898C144.78 87.2898 145.238 87.4148 145.652 87.6648C146.067 87.9119 146.4 88.2543 146.65 88.6918C146.9 89.1264 147.025 89.625 147.025 90.1875C147.025 90.7273 146.904 91.2216 146.662 91.6705C146.421 92.1165 146.081 92.4716 145.644 92.7358C145.209 92.9972 144.698 93.125 144.11 93.1193ZM144.11 92.1818C144.468 92.1818 144.789 92.0923 145.073 91.9134C145.36 91.7344 145.586 91.4943 145.75 91.1932C145.918 90.892 146.002 90.5568 146.002 90.1875C146.002 89.8267 145.921 89.4986 145.759 89.2031C145.6 88.9048 145.38 88.6676 145.098 88.4915C144.82 88.3153 144.502 88.2273 144.144 88.2273C143.874 88.2273 143.623 88.2812 143.39 88.3892C143.157 88.4943 142.952 88.6392 142.776 88.8239C142.603 89.0085 142.466 89.2202 142.367 89.4588C142.267 89.6946 142.218 89.9432 142.218 90.2045C142.218 90.5511 142.299 90.875 142.461 91.1761C142.625 91.4773 142.85 91.7202 143.134 91.9048C143.421 92.0895 143.746 92.1818 144.11 92.1818ZM151.598 93.1193C151.24 93.1136 150.882 93.0455 150.524 92.9148C150.166 92.7841 149.839 92.5639 149.544 92.2543C149.249 91.9418 149.011 91.5199 148.832 90.9886C148.653 90.4545 148.564 89.7841 148.564 88.9773C148.564 88.2045 148.636 87.5199 148.781 86.9233C148.926 86.3239 149.136 85.8196 149.412 85.4105C149.688 84.9986 150.02 84.6861 150.409 84.473C150.801 84.2599 151.243 84.1534 151.734 84.1534C152.223 84.1534 152.658 84.2514 153.038 84.4474C153.422 84.6406 153.734 84.9105 153.976 85.2571C154.217 85.6037 154.374 86.0028 154.445 86.4545H153.405C153.308 86.0625 153.121 85.7372 152.842 85.4787C152.564 85.2202 152.195 85.0909 151.734 85.0909C151.058 85.0909 150.526 85.3849 150.136 85.973C149.75 86.5611 149.555 87.3864 149.553 88.4489H149.621C149.78 88.2074 149.969 88.0014 150.188 87.831C150.409 87.6577 150.653 87.5241 150.92 87.4304C151.188 87.3366 151.47 87.2898 151.768 87.2898C152.268 87.2898 152.726 87.4148 153.141 87.6648C153.555 87.9119 153.888 88.2543 154.138 88.6918C154.388 89.1264 154.513 89.625 154.513 90.1875C154.513 90.7273 154.392 91.2216 154.151 91.6705C153.909 92.1165 153.57 92.4716 153.132 92.7358C152.697 92.9972 152.186 93.125 151.598 93.1193ZM151.598 92.1818C151.956 92.1818 152.277 92.0923 152.561 91.9134C152.848 91.7344 153.074 91.4943 153.239 91.1932C153.406 90.892 153.49 90.5568 153.49 90.1875C153.49 89.8267 153.409 89.4986 153.247 89.2031C153.088 88.9048 152.868 88.6676 152.587 88.4915C152.308 88.3153 151.99 88.2273 151.632 88.2273C151.362 88.2273 151.111 88.2812 150.878 88.3892C150.645 88.4943 150.44 88.6392 150.264 88.8239C150.091 89.0085 149.955 89.2202 149.855 89.4588C149.756 89.6946 149.706 89.9432 149.706 90.2045C149.706 90.5511 149.787 90.875 149.949 91.1761C150.114 91.4773 150.338 91.7202 150.622 91.9048C150.909 92.0895 151.234 92.1818 151.598 92.1818ZM160.075 93H158.967L162.172 84.2727H163.262L166.467 93H165.359L162.751 85.6534H162.683L160.075 93ZM160.484 89.5909H164.95V90.5284H160.484V89.5909ZM173.554 84.2727H174.61V90.0511C174.61 90.6477 174.47 91.1804 174.189 91.6491C173.91 92.1151 173.517 92.483 173.008 92.7528C172.5 93.0199 171.903 93.1534 171.218 93.1534C170.534 93.1534 169.937 93.0199 169.429 92.7528C168.92 92.483 168.525 92.1151 168.244 91.6491C167.966 91.1804 167.826 90.6477 167.826 90.0511V84.2727H168.883V89.9659C168.883 90.392 168.977 90.7713 169.164 91.1037C169.352 91.4332 169.619 91.6932 169.966 91.8835C170.315 92.071 170.733 92.1648 171.218 92.1648C171.704 92.1648 172.122 92.071 172.471 91.8835C172.821 91.6932 173.088 91.4332 173.272 91.1037C173.46 90.7713 173.554 90.392 173.554 89.9659V84.2727Z" fill="#667085"/>
<path d="M108.071 107.485C108.962 107.485 109.408 108.562 108.778 109.192L102.707 115.263C102.317 115.654 101.683 115.654 101.293 115.263L95.2218 109.192C94.5919 108.562 95.038 107.485 95.9289 107.485H108.071Z" fill="white"/>
</g>
<defs>
<filter id="filter0_dd_36_5473" x="0" y="0" width="204" height="140" filterUnits="userSpaceOnUse" color-interpolation-filters="sRGB">
<feFlood flood-opacity="0" result="BackgroundImageFix"/>
<feColorMatrix in="SourceAlpha" type="matrix" values="0 0 0 0 0 0 0 0 0 0 0 0 0 0 0 0 0 0 127 0" result="hardAlpha"/>
<feMorphology radius="2" operator="erode" in="SourceAlpha" result="effect1_dropShadow_36_5473"/>
<feOffset dy="4"/>
<feGaussianBlur stdDeviation="3"/>
<feColorMatrix type="matrix" values="0 0 0 0 0.0627451 0 0 0 0 0.0941176 0 0 0 0 0.156863 0 0 0 0.03 0"/>
<feBlend mode="normal" in2="BackgroundImageFix" result="effect1_dropShadow_36_5473"/>
<feColorMatrix in="SourceAlpha" type="matrix" values="0 0 0 0 0 0 0 0 0 0 0 0 0 0 0 0 0 0 127 0" result="hardAlpha"/>
<feMorphology radius="4" operator="erode" in="SourceAlpha" result="effect2_dropShadow_36_5473"/>
<feOffset dy="12"/>
<feGaussianBlur stdDeviation="8"/>
<feColorMatrix type="matrix" values="0 0 0 0 0.0627451 0 0 0 0 0.0941176 0 0 0 0 0.156863 0 0 0 0.08 0"/>
<feBlend mode="normal" in2="effect1_dropShadow_36_5473" result="effect2_dropShadow_36_5473"/>
<feBlend mode="normal" in="SourceGraphic" in2="effect2_dropShadow_36_5473" result="shape"/>
</filter>
<clipPath id="clip0_36_5473">
<rect width="20" height="20" fill="white" transform="translate(92 12)"/>
</clipPath>
</defs>
</svg>
